<svg xmlns="http://www.w3.org/2000/svg" xmlns:xlink="http://www.w3.org/1999/xlink" width="100" height="100"
    zoomAndPan="magnify" viewBox="0 0 375 374.999991" preserveAspectRatio="xMidYMid meet" version="1.0">
    <defs>
        <g />
    </defs>
    <g fill="#ffffff" fill-opacity="1">
        <g transform="translate(92.825353, 218.928941)">
            <g>
                <path
                    d="M -14.984375 15.3125 C -16.003906 15.3125 -16.804688 15.054688 -17.390625 14.546875 C -17.984375 14.035156 -18.28125 13.335938 -18.28125 12.453125 C -18.28125 11.984375 -18.210938 11.535156 -18.078125 11.109375 C -17.953125 10.691406 -17.78125 10.28125 -17.5625 9.875 C -17.226562 9.25 -16.878906 8.671875 -16.515625 8.140625 C -16.148438 7.617188 -15.726562 7.117188 -15.25 6.640625 C -13.351562 4.734375 -11.363281 3.066406 -9.28125 1.640625 C -8.21875 0.910156 -7.132812 0.253906 -6.03125 -0.328125 C -4.9375 -0.910156 -3.859375 -1.492188 -2.796875 -2.078125 L -1.8125 -2.640625 L -1.640625 -3.78125 C -1.460938 -4.914062 -1.375 -6.066406 -1.375 -7.234375 C -1.375 -8.410156 -1.316406 -9.566406 -1.203125 -10.703125 C -0.984375 -12.898438 -0.609375 -15.054688 -0.078125 -17.171875 C 0.453125 -19.296875 1.300781 -21.3125 2.46875 -23.21875 C 2.875 -23.875 3.320312 -24.507812 3.8125 -25.125 C 4.3125 -25.75 4.796875 -26.410156 5.265625 -27.109375 C 5.484375 -27.398438 5.738281 -27.664062 6.03125 -27.90625 C 6.320312 -28.144531 6.632812 -28.390625 6.96875 -28.640625 C 7.84375 -29.335938 8.773438 -29.6875 9.765625 -29.6875 C 10.492188 -29.6875 11.066406 -29.457031 11.484375 -29 C 11.910156 -28.539062 12.125 -27.894531 12.125 -27.0625 C 12.125 -26.4375 12.035156 -25.847656 11.859375 -25.296875 C 11.671875 -24.742188 11.472656 -24.203125 11.265625 -23.671875 C 11.066406 -23.148438 10.820312 -22.648438 10.53125 -22.171875 L 9.390625 -20.1875 L 7.03125 -16.25 C 6.988281 -16.132812 6.941406 -16.03125 6.890625 -15.9375 C 6.835938 -15.851562 6.769531 -15.769531 6.6875 -15.6875 C 6.507812 -15.507812 6.328125 -15.421875 6.140625 -15.421875 C 5.742188 -15.421875 5.546875 -15.625 5.546875 -16.03125 C 5.546875 -16.28125 5.546875 -16.503906 5.546875 -16.703125 C 5.546875 -16.910156 5.617188 -17.085938 5.765625 -17.234375 C 5.941406 -17.410156 6.082031 -17.597656 6.1875 -17.796875 C 6.300781 -18.003906 6.414062 -18.203125 6.53125 -18.390625 L 7.953125 -20.578125 C 8.535156 -21.523438 9.050781 -22.40625 9.5 -23.21875 C 9.75 -23.6875 9.960938 -24.164062 10.140625 -24.65625 C 10.328125 -25.15625 10.457031 -25.644531 10.53125 -26.125 C 10.570312 -26.300781 10.597656 -26.476562 10.609375 -26.65625 C 10.628906 -26.84375 10.640625 -27.03125 10.640625 -27.21875 C 10.640625 -27.84375 10.332031 -28.15625 9.71875 -28.15625 C 9.457031 -28.15625 9.1875 -28.125 8.90625 -28.0625 C 8.632812 -28.007812 8.410156 -27.910156 8.234375 -27.765625 C 7.898438 -27.546875 7.601562 -27.332031 7.34375 -27.125 C 7.09375 -26.925781 6.835938 -26.679688 6.578125 -26.390625 C 5.921875 -25.660156 5.285156 -24.859375 4.671875 -23.984375 C 3.640625 -22.441406 2.835938 -20.828125 2.265625 -19.140625 C 1.703125 -17.460938 1.222656 -15.710938 0.828125 -13.890625 C 0.566406 -12.679688 0.390625 -11.472656 0.296875 -10.265625 C 0.210938 -9.054688 0.132812 -7.828125 0.0625 -6.578125 L -0.109375 -3.40625 C 0.078125 -3.476562 0.234375 -3.539062 0.359375 -3.59375 C 0.484375 -3.644531 0.601562 -3.691406 0.71875 -3.734375 C 2.507812 -4.648438 4.316406 -5.523438 6.140625 -6.359375 C 7.972656 -7.203125 9.804688 -8.046875 11.640625 -8.890625 C 12.296875 -9.179688 12.96875 -9.519531 13.65625 -9.90625 C 14.351562 -10.289062 14.957031 -10.71875 15.46875 -11.1875 C 15.875 -11.5625 16.3125 -12.054688 16.78125 -12.671875 C 17.257812 -13.296875 17.535156 -13.628906 17.609375 -13.671875 C 17.796875 -13.773438 17.960938 -13.828125 18.109375 -13.828125 C 18.296875 -13.828125 18.425781 -13.8125 18.5 -13.78125 C 18.863281 -13.550781 19.007812 -13.253906 18.9375 -12.890625 C 18.894531 -12.785156 18.835938 -12.675781 18.765625 -12.5625 C 18.691406 -12.457031 18.617188 -12.347656 18.546875 -12.234375 C 18.398438 -11.984375 18.21875 -11.742188 18 -11.515625 C 17.78125 -11.296875 17.5625 -11.078125 17.34375 -10.859375 C 15.875 -9.398438 14.132812 -8.195312 12.125 -7.25 L 2.1875 -2.53125 C 1.789062 -2.34375 1.390625 -2.144531 0.984375 -1.9375 C 0.585938 -1.738281 0.164062 -1.550781 -0.28125 -1.375 C -0.351562 -1.007812 -0.429688 -0.601562 -0.515625 -0.15625 C -0.609375 0.28125 -0.710938 0.71875 -0.828125 1.15625 C -1.117188 2.394531 -1.484375 3.632812 -1.921875 4.875 C -2.359375 6.125 -3 7.28125 -3.84375 8.34375 C -4.90625 9.726562 -6.117188 10.960938 -7.484375 12.046875 C -8.859375 13.128906 -10.390625 14 -12.078125 14.65625 C -12.546875 14.832031 -13.019531 14.984375 -13.5 15.109375 C -13.976562 15.242188 -14.472656 15.3125 -14.984375 15.3125 Z M -14.484375 13.671875 C -13.972656 13.554688 -13.488281 13.429688 -13.03125 13.296875 C -12.570312 13.171875 -12.109375 13 -11.640625 12.78125 C -9.035156 11.570312 -6.957031 9.953125 -5.40625 7.921875 C -3.851562 5.898438 -2.800781 3.515625 -2.25 0.765625 L -1.96875 -0.609375 C -2.34375 -0.421875 -2.675781 -0.257812 -2.96875 -0.125 C -3.257812 0 -3.53125 0.148438 -3.78125 0.328125 C -5.46875 1.460938 -7.179688 2.550781 -8.921875 3.59375 C -10.660156 4.632812 -12.222656 5.90625 -13.609375 7.40625 C -13.972656 7.769531 -14.328125 8.15625 -14.671875 8.5625 C -15.023438 8.96875 -15.347656 9.40625 -15.640625 9.875 C -15.785156 10.132812 -15.90625 10.410156 -16 10.703125 C -16.09375 10.992188 -16.226562 11.285156 -16.40625 11.578125 C -16.476562 11.722656 -16.523438 11.894531 -16.546875 12.09375 C -16.566406 12.300781 -16.578125 12.492188 -16.578125 12.671875 C -16.578125 13.078125 -16.359375 13.375 -15.921875 13.5625 C -15.441406 13.738281 -14.960938 13.773438 -14.484375 13.671875 Z M -14.484375 13.671875 " />
            </g>
        </g>
    </g>
    <g fill="#ffffff" fill-opacity="1">
        <g transform="translate(112.787018, 218.928941)">
            <g>
                <path
                    d="M 14.21875 -4.828125 C 13.257812 -4.828125 12.453125 -5.046875 11.796875 -5.484375 C 11.140625 -5.921875 10.644531 -6.507812 10.3125 -7.25 C 10.09375 -7.757812 9.921875 -8.257812 9.796875 -8.75 C 9.671875 -9.25 9.609375 -9.753906 9.609375 -10.265625 L 9.609375 -12.34375 C 9.390625 -12.5625 9.222656 -12.742188 9.109375 -12.890625 C 8.992188 -13.035156 8.9375 -13.203125 8.9375 -13.390625 C 8.9375 -13.460938 8.945312 -13.550781 8.96875 -13.65625 C 8.988281 -13.769531 9.019531 -13.898438 9.0625 -14.046875 C 9.132812 -14.335938 9.222656 -14.664062 9.328125 -15.03125 C 9.441406 -15.394531 9.550781 -15.78125 9.65625 -16.1875 C 9.507812 -16.039062 9.390625 -15.929688 9.296875 -15.859375 C 9.210938 -15.785156 9.132812 -15.710938 9.0625 -15.640625 C 8.394531 -14.984375 7.773438 -14.296875 7.203125 -13.578125 C 6.640625 -12.867188 6.066406 -12.164062 5.484375 -11.46875 C 5.046875 -10.957031 4.585938 -10.4375 4.109375 -9.90625 C 3.640625 -9.375 3.148438 -8.851562 2.640625 -8.34375 C 2.265625 -7.976562 1.882812 -7.65625 1.5 -7.375 C 1.125 -7.101562 0.734375 -6.800781 0.328125 -6.46875 C 0.148438 -6.320312 -0.0664062 -6.1875 -0.328125 -6.0625 C -0.585938 -5.9375 -0.863281 -5.835938 -1.15625 -5.765625 C -1.226562 -5.722656 -1.316406 -5.703125 -1.421875 -5.703125 C -1.535156 -5.703125 -1.628906 -5.703125 -1.703125 -5.703125 C -2.140625 -5.703125 -2.492188 -5.863281 -2.765625 -6.1875 C -3.046875 -6.519531 -3.1875 -6.925781 -3.1875 -7.40625 C -3.1875 -7.695312 -3.148438 -8 -3.078125 -8.3125 C -3.003906 -8.625 -2.910156 -8.910156 -2.796875 -9.171875 C -2.390625 -10.148438 -1.921875 -11.125 -1.390625 -12.09375 C -0.867188 -13.070312 -0.3125 -14 0.28125 -14.875 C 0.863281 -15.71875 1.5 -16.492188 2.1875 -17.203125 C 2.882812 -17.921875 3.597656 -18.585938 4.328125 -19.203125 C 4.734375 -19.535156 5.15625 -19.847656 5.59375 -20.140625 C 6.03125 -20.429688 6.488281 -20.6875 6.96875 -20.90625 C 7.226562 -21.019531 7.492188 -21.117188 7.765625 -21.203125 C 8.035156 -21.296875 8.300781 -21.363281 8.5625 -21.40625 C 8.707031 -21.4375 8.832031 -21.460938 8.9375 -21.484375 C 9.050781 -21.503906 9.164062 -21.515625 9.28125 -21.515625 C 9.601562 -21.515625 9.910156 -21.476562 10.203125 -21.40625 C 10.492188 -21.332031 10.769531 -21.164062 11.03125 -20.90625 L 11.25 -20.6875 L 11.359375 -20.640625 L 12.015625 -20.96875 C 12.085938 -21 12.179688 -21.015625 12.296875 -21.015625 C 12.835938 -21.015625 13.109375 -20.738281 13.109375 -20.1875 C 13.109375 -20.039062 13.085938 -19.875 13.046875 -19.6875 C 13.015625 -19.507812 12.960938 -19.332031 12.890625 -19.15625 C 12.671875 -18.53125 12.476562 -17.894531 12.3125 -17.25 C 12.15625 -16.613281 11.984375 -15.96875 11.796875 -15.3125 C 11.617188 -14.507812 11.492188 -13.6875 11.421875 -12.84375 C 11.347656 -12 11.3125 -11.15625 11.3125 -10.3125 C 11.3125 -9.550781 11.4375 -8.835938 11.6875 -8.171875 C 12.164062 -7.035156 13.023438 -6.46875 14.265625 -6.46875 C 14.671875 -6.46875 15.054688 -6.492188 15.421875 -6.546875 C 15.785156 -6.609375 16.148438 -6.734375 16.515625 -6.921875 C 16.804688 -7.097656 17.113281 -7.257812 17.4375 -7.40625 C 17.769531 -7.550781 18.101562 -7.71875 18.4375 -7.90625 C 19.5 -8.519531 20.492188 -9.203125 21.421875 -9.953125 C 22.359375 -10.703125 23.265625 -11.519531 24.140625 -12.40625 C 24.285156 -12.550781 24.410156 -12.6875 24.515625 -12.8125 C 24.628906 -12.9375 24.648438 -13.128906 24.578125 -13.390625 C 24.546875 -13.390625 24.53125 -13.425781 24.53125 -13.5 C 24.53125 -13.613281 24.59375 -13.695312 24.71875 -13.75 C 24.851562 -13.800781 24.957031 -13.863281 25.03125 -13.9375 C 25.101562 -14.007812 25.226562 -14.046875 25.40625 -14.046875 C 25.664062 -14.046875 25.894531 -13.953125 26.09375 -13.765625 C 26.289062 -13.585938 26.390625 -13.367188 26.390625 -13.109375 C 26.390625 -12.785156 26.300781 -12.492188 26.125 -12.234375 C 26.007812 -12.085938 25.894531 -11.953125 25.78125 -11.828125 C 25.675781 -11.703125 25.570312 -11.582031 25.46875 -11.46875 C 24.550781 -10.550781 23.613281 -9.726562 22.65625 -9 C 21.707031 -8.269531 20.703125 -7.539062 19.640625 -6.8125 C 19.023438 -6.363281 18.367188 -5.957031 17.671875 -5.59375 C 16.972656 -5.226562 16.238281 -5.007812 15.46875 -4.9375 C 15.25 -4.90625 15.039062 -4.878906 14.84375 -4.859375 C 14.644531 -4.835938 14.4375 -4.828125 14.21875 -4.828125 Z M -1.484375 -7.359375 C -1.367188 -7.359375 -1.238281 -7.394531 -1.09375 -7.46875 C -0.84375 -7.570312 -0.609375 -7.707031 -0.390625 -7.875 C -0.171875 -8.039062 0.0507812 -8.195312 0.28125 -8.34375 C 0.789062 -8.707031 1.234375 -9.085938 1.609375 -9.484375 C 1.992188 -9.890625 2.390625 -10.332031 2.796875 -10.8125 C 3.972656 -12.164062 5.242188 -13.460938 6.609375 -14.703125 C 7.984375 -15.953125 9.070312 -17.378906 9.875 -18.984375 C 9.914062 -19.054688 9.953125 -19.128906 9.984375 -19.203125 C 10.023438 -19.273438 10.023438 -19.367188 9.984375 -19.484375 C 9.910156 -19.703125 9.75 -19.8125 9.5 -19.8125 C 9.3125 -19.8125 9.109375 -19.78125 8.890625 -19.71875 C 8.671875 -19.664062 8.46875 -19.601562 8.28125 -19.53125 C 8.03125 -19.457031 7.773438 -19.359375 7.515625 -19.234375 C 7.265625 -19.109375 6.988281 -18.953125 6.6875 -18.765625 C 6.289062 -18.515625 5.898438 -18.234375 5.515625 -17.921875 C 5.128906 -17.609375 4.753906 -17.269531 4.390625 -16.90625 C 3.441406 -15.945312 2.554688 -14.957031 1.734375 -13.9375 C 0.910156 -12.914062 0.1875 -11.800781 -0.4375 -10.59375 C -0.625 -10.226562 -0.796875 -9.851562 -0.953125 -9.46875 C -1.117188 -9.082031 -1.273438 -8.6875 -1.421875 -8.28125 C -1.492188 -8.0625 -1.53125 -7.878906 -1.53125 -7.734375 C -1.53125 -7.585938 -1.515625 -7.460938 -1.484375 -7.359375 Z M -1.484375 -7.359375 " />
            </g>
        </g>
    </g>
    <g fill="#ffffff" fill-opacity="1">
        <g transform="translate(140.266477, 218.928941)">
            <g>
                <path
                    d="M -7.359375 1.09375 C -7.609375 1.09375 -7.785156 0.960938 -7.890625 0.703125 C -8.003906 0.453125 -8.171875 0.21875 -8.390625 0 C -8.429688 -0.0390625 -8.453125 -0.078125 -8.453125 -0.109375 C -8.453125 -0.398438 -8.394531 -0.65625 -8.28125 -0.875 C -8.101562 -1.207031 -7.957031 -1.566406 -7.84375 -1.953125 C -7.738281 -2.335938 -7.59375 -2.710938 -7.40625 -3.078125 C -6.96875 -3.910156 -6.53125 -4.75 -6.09375 -5.59375 C -5.65625 -6.4375 -5.179688 -7.257812 -4.671875 -8.0625 C -3.171875 -10.445312 -1.613281 -12.769531 0 -15.03125 C 1.613281 -17.300781 3.207031 -19.585938 4.78125 -21.890625 C 5.03125 -22.253906 5.28125 -22.609375 5.53125 -22.953125 C 5.789062 -23.304688 6.085938 -23.648438 6.421875 -23.984375 C 6.566406 -24.128906 6.726562 -24.253906 6.90625 -24.359375 C 7.09375 -24.472656 7.257812 -24.582031 7.40625 -24.6875 C 7.59375 -24.800781 7.757812 -24.859375 7.90625 -24.859375 C 8.195312 -24.859375 8.441406 -24.75 8.640625 -24.53125 C 8.835938 -24.3125 8.9375 -24.054688 8.9375 -23.765625 C 8.9375 -23.472656 8.878906 -23.1875 8.765625 -22.90625 C 8.660156 -22.632812 8.519531 -22.367188 8.34375 -22.109375 C 7.757812 -21.234375 7.191406 -20.335938 6.640625 -19.421875 C 6.085938 -18.515625 5.503906 -17.617188 4.890625 -16.734375 C 4.628906 -16.367188 4.34375 -15.984375 4.03125 -15.578125 C 3.71875 -15.179688 3.4375 -14.78125 3.1875 -14.375 L 2.96875 -14 C 2.75 -13.664062 2.4375 -13.5 2.03125 -13.5 C 1.914062 -13.5 1.75 -13.535156 1.53125 -13.609375 C 0.175781 -11.742188 -1.128906 -9.847656 -2.390625 -7.921875 C -3.648438 -6.003906 -4.863281 -4.054688 -6.03125 -2.078125 C -6.101562 -1.929688 -6.1875 -1.785156 -6.28125 -1.640625 C -6.375 -1.492188 -6.398438 -1.3125 -6.359375 -1.09375 C -6.179688 -1.164062 -6.007812 -1.265625 -5.84375 -1.390625 C -5.675781 -1.523438 -5.519531 -1.644531 -5.375 -1.75 C -4.351562 -2.5625 -3.382812 -3.40625 -2.46875 -4.28125 C -1.550781 -5.15625 -0.617188 -6.015625 0.328125 -6.859375 C 1.609375 -7.953125 2.832031 -9.082031 4 -10.25 C 5.175781 -11.425781 6.382812 -12.566406 7.625 -13.671875 C 8.132812 -14.140625 8.691406 -14.59375 9.296875 -15.03125 C 9.898438 -15.46875 10.441406 -15.925781 10.921875 -16.40625 C 11.140625 -16.625 11.382812 -16.816406 11.65625 -16.984375 C 11.9375 -17.148438 12.203125 -17.320312 12.453125 -17.5 C 12.597656 -17.613281 12.757812 -17.675781 12.9375 -17.6875 C 13.125 -17.707031 13.273438 -17.773438 13.390625 -17.890625 C 13.421875 -17.921875 13.515625 -17.9375 13.671875 -17.9375 C 14.359375 -17.9375 14.703125 -17.59375 14.703125 -16.90625 C 14.703125 -16.71875 14.679688 -16.523438 14.640625 -16.328125 C 14.609375 -16.128906 14.554688 -15.9375 14.484375 -15.75 C 14.335938 -15.195312 14.164062 -14.65625 13.96875 -14.125 C 13.769531 -13.59375 13.59375 -13.054688 13.4375 -12.515625 C 13.289062 -11.890625 13.144531 -11.253906 13 -10.609375 C 12.851562 -9.972656 12.707031 -9.34375 12.5625 -8.71875 C 12.457031 -8.25 12.40625 -7.757812 12.40625 -7.25 C 12.40625 -6.113281 12.613281 -5.242188 13.03125 -4.640625 C 13.457031 -4.035156 14.179688 -3.734375 15.203125 -3.734375 C 16.003906 -3.734375 16.804688 -3.929688 17.609375 -4.328125 C 18.160156 -4.628906 18.679688 -4.953125 19.171875 -5.296875 C 19.671875 -5.640625 20.160156 -6.015625 20.640625 -6.421875 C 21.878906 -7.515625 23.09375 -8.617188 24.28125 -9.734375 C 25.46875 -10.859375 26.648438 -12.003906 27.828125 -13.171875 C 27.929688 -13.273438 28.019531 -13.382812 28.09375 -13.5 C 28.164062 -13.613281 28.257812 -13.6875 28.375 -13.71875 C 28.550781 -13.832031 28.695312 -13.890625 28.8125 -13.890625 C 29.0625 -13.890625 29.242188 -13.832031 29.359375 -13.71875 C 29.691406 -13.382812 29.765625 -13.070312 29.578125 -12.78125 C 29.472656 -12.632812 29.363281 -12.46875 29.25 -12.28125 C 29.132812 -12.101562 29.003906 -11.941406 28.859375 -11.796875 C 27.804688 -10.734375 26.726562 -9.679688 25.625 -8.640625 C 24.53125 -7.597656 23.394531 -6.582031 22.21875 -5.59375 C 21.851562 -5.300781 21.488281 -5.015625 21.125 -4.734375 C 20.757812 -4.460938 20.375 -4.179688 19.96875 -3.890625 C 19.238281 -3.304688 18.398438 -2.851562 17.453125 -2.53125 C 17.085938 -2.382812 16.710938 -2.265625 16.328125 -2.171875 C 15.941406 -2.078125 15.546875 -2.03125 15.140625 -2.03125 C 14.992188 -2.03125 14.859375 -2.03125 14.734375 -2.03125 C 14.609375 -2.03125 14.488281 -2.046875 14.375 -2.078125 C 13.351562 -2.335938 12.539062 -2.757812 11.9375 -3.34375 C 11.332031 -3.925781 10.972656 -4.734375 10.859375 -5.765625 C 10.828125 -6.015625 10.8125 -6.25 10.8125 -6.46875 C 10.8125 -6.695312 10.8125 -6.921875 10.8125 -7.140625 C 10.8125 -7.867188 10.863281 -8.5625 10.96875 -9.21875 C 11.113281 -10.09375 11.316406 -10.957031 11.578125 -11.8125 C 11.835938 -12.675781 12.09375 -13.515625 12.34375 -14.328125 L 12.671875 -15.46875 L 12.515625 -15.640625 L 11.359375 -14.703125 C 9.828125 -13.460938 8.347656 -12.164062 6.921875 -10.8125 C 5.492188 -9.457031 4.046875 -8.101562 2.578125 -6.75 C 1.441406 -5.726562 0.316406 -4.703125 -0.796875 -3.671875 C -1.910156 -2.648438 -3.050781 -1.664062 -4.21875 -0.71875 C -4.476562 -0.5 -4.753906 -0.273438 -5.046875 -0.046875 C -5.335938 0.171875 -5.628906 0.367188 -5.921875 0.546875 C -6.253906 0.765625 -6.585938 0.929688 -6.921875 1.046875 C -7.023438 1.078125 -7.171875 1.09375 -7.359375 1.09375 Z M -7.359375 1.09375 " />
            </g>
        </g>
    </g>
    <g fill="#ffffff" fill-opacity="1">
        <g transform="translate(171.093277, 218.928941)">
            <g>
                <path
                    d="M -42.421875 66.78125 C -44.253906 66.78125 -45.390625 65.847656 -45.828125 63.984375 C -46.046875 63.035156 -46.097656 62.085938 -45.984375 61.140625 C -45.804688 59.859375 -45.539062 58.601562 -45.1875 57.375 C -44.84375 56.144531 -44.429688 54.945312 -43.953125 53.78125 C -42.597656 50.59375 -40.953125 47.5 -39.015625 44.5 C -37.554688 42.238281 -36.019531 40.0625 -34.40625 37.96875 C -32.800781 35.882812 -31.117188 33.835938 -29.359375 31.828125 C -26.210938 28.242188 -22.984375 24.796875 -19.671875 21.484375 C -16.359375 18.171875 -12.929688 14.960938 -9.390625 11.859375 C -6.566406 9.398438 -3.664062 7.046875 -0.6875 4.796875 C 2.289062 2.546875 5.335938 0.414062 8.453125 -1.59375 C 9.148438 -2.03125 9.695312 -2.648438 10.09375 -3.453125 C 11.5625 -6.347656 13.035156 -9.222656 14.515625 -12.078125 C 15.992188 -14.929688 17.359375 -17.835938 18.609375 -20.796875 L 18.9375 -21.5625 C 18.863281 -21.675781 18.804688 -21.703125 18.765625 -21.640625 C 18.734375 -21.585938 18.679688 -21.546875 18.609375 -21.515625 C 18.535156 -21.472656 18.441406 -21.398438 18.328125 -21.296875 C 16.535156 -19.503906 14.648438 -17.828125 12.671875 -16.265625 C 10.703125 -14.710938 8.726562 -13.132812 6.75 -11.53125 C 5.90625 -10.832031 5.046875 -10.148438 4.171875 -9.484375 C 3.296875 -8.828125 2.414062 -8.15625 1.53125 -7.46875 C 1.0625 -7.101562 0.585938 -6.765625 0.109375 -6.453125 C -0.367188 -6.140625 -0.863281 -5.851562 -1.375 -5.59375 C -1.59375 -5.488281 -1.8125 -5.398438 -2.03125 -5.328125 C -2.25 -5.253906 -2.503906 -5.21875 -2.796875 -5.21875 C -3.785156 -5.21875 -4.28125 -5.691406 -4.28125 -6.640625 C -4.28125 -6.859375 -4.242188 -7.09375 -4.171875 -7.34375 C -4.097656 -7.601562 -4.023438 -7.84375 -3.953125 -8.0625 C -3.804688 -8.394531 -3.660156 -8.722656 -3.515625 -9.046875 C -3.367188 -9.378906 -3.222656 -9.691406 -3.078125 -9.984375 C -2.015625 -11.921875 -0.84375 -13.75 0.4375 -15.46875 L 4.71875 -21.234375 C 5.007812 -21.640625 5.328125 -22.039062 5.671875 -22.4375 C 6.023438 -22.84375 6.40625 -23.175781 6.8125 -23.4375 C 6.988281 -23.539062 7.164062 -23.640625 7.34375 -23.734375 C 7.53125 -23.828125 7.734375 -23.875 7.953125 -23.875 C 8.285156 -23.875 8.570312 -23.769531 8.8125 -23.5625 C 9.050781 -23.363281 9.171875 -23.117188 9.171875 -22.828125 L 9.171875 -22.5625 C 9.171875 -22.113281 9.09375 -21.726562 8.9375 -21.40625 C 8.320312 -19.90625 7.484375 -18.566406 6.421875 -17.390625 C 6.015625 -16.953125 5.648438 -16.734375 5.328125 -16.734375 C 5.210938 -16.734375 5.09375 -16.742188 4.96875 -16.765625 C 4.84375 -16.785156 4.6875 -16.8125 4.5 -16.84375 C 3.289062 -15.34375 2.070312 -13.820312 0.84375 -12.28125 C -0.375 -10.75 -1.441406 -9.050781 -2.359375 -7.1875 L -1.75 -7.40625 C -1.351562 -7.664062 -0.941406 -7.921875 -0.515625 -8.171875 C -0.0976562 -8.429688 0.289062 -8.707031 0.65625 -9 C 1.9375 -9.988281 3.207031 -10.972656 4.46875 -11.953125 C 5.726562 -12.941406 6.984375 -13.953125 8.234375 -14.984375 C 9.953125 -16.367188 11.679688 -17.765625 13.421875 -19.171875 C 15.160156 -20.585938 16.816406 -22.082031 18.390625 -23.65625 C 18.566406 -23.832031 18.753906 -23.992188 18.953125 -24.140625 C 19.160156 -24.285156 19.335938 -24.429688 19.484375 -24.578125 C 19.734375 -24.835938 19.96875 -25.023438 20.1875 -25.140625 C 20.414062 -25.242188 20.640625 -25.296875 20.859375 -25.296875 C 21.109375 -25.296875 21.304688 -25.222656 21.453125 -25.078125 C 21.742188 -24.785156 21.890625 -24.492188 21.890625 -24.203125 C 21.890625 -23.941406 21.832031 -23.675781 21.71875 -23.40625 C 21.613281 -23.132812 21.507812 -22.867188 21.40625 -22.609375 L 20.03125 -19.75 C 18.894531 -17.34375 17.703125 -14.945312 16.453125 -12.5625 C 15.210938 -10.1875 14.007812 -7.8125 12.84375 -5.4375 C 12.726562 -5.289062 12.625 -5.113281 12.53125 -4.90625 C 12.445312 -4.707031 12.367188 -4.515625 12.296875 -4.328125 L 12.453125 -4.171875 C 12.640625 -4.273438 12.8125 -4.382812 12.96875 -4.5 C 13.132812 -4.613281 13.3125 -4.722656 13.5 -4.828125 C 16.0625 -6.296875 18.628906 -7.734375 21.203125 -9.140625 C 23.785156 -10.546875 26.375 -11.960938 28.96875 -13.390625 C 29.269531 -13.578125 29.582031 -13.734375 29.90625 -13.859375 C 30.238281 -13.984375 30.566406 -14.117188 30.890625 -14.265625 C 31.179688 -14.378906 31.441406 -14.414062 31.671875 -14.375 C 31.992188 -14.300781 32.210938 -14.117188 32.328125 -13.828125 L 32.328125 -13.671875 C 32.328125 -13.410156 32.21875 -13.1875 32 -13 L 31.4375 -12.671875 C 30.925781 -12.453125 30.414062 -12.234375 29.90625 -12.015625 C 29.394531 -11.796875 28.882812 -11.5625 28.375 -11.3125 C 25.519531 -9.882812 22.710938 -8.398438 19.953125 -6.859375 C 17.191406 -5.328125 14.457031 -3.695312 11.75 -1.96875 C 11.15625 -1.601562 10.695312 -1.09375 10.375 -0.4375 C 8.832031 2.632812 7.289062 5.6875 5.75 8.71875 C 4.21875 11.757812 2.628906 14.796875 0.984375 17.828125 C -1.722656 22.804688 -4.613281 27.632812 -7.6875 32.3125 C -10.757812 37 -14.101562 41.519531 -17.71875 45.875 C -21.195312 50.050781 -24.859375 54.039062 -28.703125 57.84375 C -29.835938 58.9375 -30.988281 59.992188 -32.15625 61.015625 C -33.332031 62.046875 -34.554688 63 -35.828125 63.875 C -36.347656 64.238281 -36.878906 64.578125 -37.421875 64.890625 C -37.972656 65.203125 -38.523438 65.523438 -39.078125 65.859375 C -39.441406 66.078125 -39.84375 66.257812 -40.28125 66.40625 C -40.71875 66.550781 -41.15625 66.660156 -41.59375 66.734375 C -41.738281 66.765625 -41.875 66.78125 -42 66.78125 C -42.132812 66.78125 -42.273438 66.78125 -42.421875 66.78125 Z M -42.359375 65.140625 C -41.703125 65.140625 -41.0625 65.007812 -40.4375 64.75 C -39.820312 64.5 -39.222656 64.207031 -38.640625 63.875 C -37.679688 63.332031 -36.769531 62.75 -35.90625 62.125 C -35.050781 61.5 -34.222656 60.835938 -33.421875 60.140625 C -31.515625 58.535156 -29.703125 56.875 -27.984375 55.15625 C -26.265625 53.4375 -24.601562 51.660156 -23 49.828125 C -19.1875 45.546875 -15.632812 41.097656 -12.34375 36.484375 C -9.050781 31.878906 -5.976562 27.085938 -3.125 22.109375 C -1.1875 18.710938 0.675781 15.265625 2.46875 11.765625 C 4.257812 8.273438 6.035156 4.773438 7.796875 1.265625 L 7.953125 0.765625 C 7.953125 0.734375 7.914062 0.679688 7.84375 0.609375 L 7.1875 1.046875 C 4.914062 2.578125 2.679688 4.175781 0.484375 5.84375 C -1.703125 7.507812 -3.859375 9.203125 -5.984375 10.921875 C -8.722656 13.148438 -11.375 15.476562 -13.9375 17.90625 C -16.5 20.34375 -19.003906 22.84375 -21.453125 25.40625 C -23.503906 27.5625 -25.515625 29.773438 -27.484375 32.046875 C -29.460938 34.316406 -31.367188 36.640625 -33.203125 39.015625 C -34.660156 40.953125 -36.046875 42.953125 -37.359375 45.015625 C -38.679688 47.085938 -39.910156 49.222656 -41.046875 51.421875 C -41.671875 52.660156 -42.238281 53.910156 -42.75 55.171875 C -43.257812 56.441406 -43.660156 57.769531 -43.953125 59.15625 C -44.066406 59.632812 -44.160156 60.109375 -44.234375 60.578125 C -44.304688 61.054688 -44.34375 61.550781 -44.34375 62.0625 C -44.34375 64.113281 -43.679688 65.140625 -42.359375 65.140625 Z M -42.359375 65.140625 " />
            </g>
        </g>
    </g>
    <g fill="#ffffff" fill-opacity="1">
        <g transform="translate(204.554048, 218.928941)">
            <g>
                <path
                    d="M 14.21875 -4.828125 C 13.257812 -4.828125 12.453125 -5.046875 11.796875 -5.484375 C 11.140625 -5.921875 10.644531 -6.507812 10.3125 -7.25 C 10.09375 -7.757812 9.921875 -8.257812 9.796875 -8.75 C 9.671875 -9.25 9.609375 -9.753906 9.609375 -10.265625 L 9.609375 -12.34375 C 9.390625 -12.5625 9.222656 -12.742188 9.109375 -12.890625 C 8.992188 -13.035156 8.9375 -13.203125 8.9375 -13.390625 C 8.9375 -13.460938 8.945312 -13.550781 8.96875 -13.65625 C 8.988281 -13.769531 9.019531 -13.898438 9.0625 -14.046875 C 9.132812 -14.335938 9.222656 -14.664062 9.328125 -15.03125 C 9.441406 -15.394531 9.550781 -15.78125 9.65625 -16.1875 C 9.507812 -16.039062 9.390625 -15.929688 9.296875 -15.859375 C 9.210938 -15.785156 9.132812 -15.710938 9.0625 -15.640625 C 8.394531 -14.984375 7.773438 -14.296875 7.203125 -13.578125 C 6.640625 -12.867188 6.066406 -12.164062 5.484375 -11.46875 C 5.046875 -10.957031 4.585938 -10.4375 4.109375 -9.90625 C 3.640625 -9.375 3.148438 -8.851562 2.640625 -8.34375 C 2.265625 -7.976562 1.882812 -7.65625 1.5 -7.375 C 1.125 -7.101562 0.734375 -6.800781 0.328125 -6.46875 C 0.148438 -6.320312 -0.0664062 -6.1875 -0.328125 -6.0625 C -0.585938 -5.9375 -0.863281 -5.835938 -1.15625 -5.765625 C -1.226562 -5.722656 -1.316406 -5.703125 -1.421875 -5.703125 C -1.535156 -5.703125 -1.628906 -5.703125 -1.703125 -5.703125 C -2.140625 -5.703125 -2.492188 -5.863281 -2.765625 -6.1875 C -3.046875 -6.519531 -3.1875 -6.925781 -3.1875 -7.40625 C -3.1875 -7.695312 -3.148438 -8 -3.078125 -8.3125 C -3.003906 -8.625 -2.910156 -8.910156 -2.796875 -9.171875 C -2.390625 -10.148438 -1.921875 -11.125 -1.390625 -12.09375 C -0.867188 -13.070312 -0.3125 -14 0.28125 -14.875 C 0.863281 -15.71875 1.5 -16.492188 2.1875 -17.203125 C 2.882812 -17.921875 3.597656 -18.585938 4.328125 -19.203125 C 4.734375 -19.535156 5.15625 -19.847656 5.59375 -20.140625 C 6.03125 -20.429688 6.488281 -20.6875 6.96875 -20.90625 C 7.226562 -21.019531 7.492188 -21.117188 7.765625 -21.203125 C 8.035156 -21.296875 8.300781 -21.363281 8.5625 -21.40625 C 8.707031 -21.4375 8.832031 -21.460938 8.9375 -21.484375 C 9.050781 -21.503906 9.164062 -21.515625 9.28125 -21.515625 C 9.601562 -21.515625 9.910156 -21.476562 10.203125 -21.40625 C 10.492188 -21.332031 10.769531 -21.164062 11.03125 -20.90625 L 11.25 -20.6875 L 11.359375 -20.640625 L 12.015625 -20.96875 C 12.085938 -21 12.179688 -21.015625 12.296875 -21.015625 C 12.835938 -21.015625 13.109375 -20.738281 13.109375 -20.1875 C 13.109375 -20.039062 13.085938 -19.875 13.046875 -19.6875 C 13.015625 -19.507812 12.960938 -19.332031 12.890625 -19.15625 C 12.671875 -18.53125 12.476562 -17.894531 12.3125 -17.25 C 12.15625 -16.613281 11.984375 -15.96875 11.796875 -15.3125 C 11.617188 -14.507812 11.492188 -13.6875 11.421875 -12.84375 C 11.347656 -12 11.3125 -11.15625 11.3125 -10.3125 C 11.3125 -9.550781 11.4375 -8.835938 11.6875 -8.171875 C 12.164062 -7.035156 13.023438 -6.46875 14.265625 -6.46875 C 14.671875 -6.46875 15.054688 -6.492188 15.421875 -6.546875 C 15.785156 -6.609375 16.148438 -6.734375 16.515625 -6.921875 C 16.804688 -7.097656 17.113281 -7.257812 17.4375 -7.40625 C 17.769531 -7.550781 18.101562 -7.71875 18.4375 -7.90625 C 19.5 -8.519531 20.492188 -9.203125 21.421875 -9.953125 C 22.359375 -10.703125 23.265625 -11.519531 24.140625 -12.40625 C 24.285156 -12.550781 24.410156 -12.6875 24.515625 -12.8125 C 24.628906 -12.9375 24.648438 -13.128906 24.578125 -13.390625 C 24.546875 -13.390625 24.53125 -13.425781 24.53125 -13.5 C 24.53125 -13.613281 24.59375 -13.695312 24.71875 -13.75 C 24.851562 -13.800781 24.957031 -13.863281 25.03125 -13.9375 C 25.101562 -14.007812 25.226562 -14.046875 25.40625 -14.046875 C 25.664062 -14.046875 25.894531 -13.953125 26.09375 -13.765625 C 26.289062 -13.585938 26.390625 -13.367188 26.390625 -13.109375 C 26.390625 -12.785156 26.300781 -12.492188 26.125 -12.234375 C 26.007812 -12.085938 25.894531 -11.953125 25.78125 -11.828125 C 25.675781 -11.703125 25.570312 -11.582031 25.46875 -11.46875 C 24.550781 -10.550781 23.613281 -9.726562 22.65625 -9 C 21.707031 -8.269531 20.703125 -7.539062 19.640625 -6.8125 C 19.023438 -6.363281 18.367188 -5.957031 17.671875 -5.59375 C 16.972656 -5.226562 16.238281 -5.007812 15.46875 -4.9375 C 15.25 -4.90625 15.039062 -4.878906 14.84375 -4.859375 C 14.644531 -4.835938 14.4375 -4.828125 14.21875 -4.828125 Z M -1.484375 -7.359375 C -1.367188 -7.359375 -1.238281 -7.394531 -1.09375 -7.46875 C -0.84375 -7.570312 -0.609375 -7.707031 -0.390625 -7.875 C -0.171875 -8.039062 0.0507812 -8.195312 0.28125 -8.34375 C 0.789062 -8.707031 1.234375 -9.085938 1.609375 -9.484375 C 1.992188 -9.890625 2.390625 -10.332031 2.796875 -10.8125 C 3.972656 -12.164062 5.242188 -13.460938 6.609375 -14.703125 C 7.984375 -15.953125 9.070312 -17.378906 9.875 -18.984375 C 9.914062 -19.054688 9.953125 -19.128906 9.984375 -19.203125 C 10.023438 -19.273438 10.023438 -19.367188 9.984375 -19.484375 C 9.910156 -19.703125 9.75 -19.8125 9.5 -19.8125 C 9.3125 -19.8125 9.109375 -19.78125 8.890625 -19.71875 C 8.671875 -19.664062 8.46875 -19.601562 8.28125 -19.53125 C 8.03125 -19.457031 7.773438 -19.359375 7.515625 -19.234375 C 7.265625 -19.109375 6.988281 -18.953125 6.6875 -18.765625 C 6.289062 -18.515625 5.898438 -18.234375 5.515625 -17.921875 C 5.128906 -17.609375 4.753906 -17.269531 4.390625 -16.90625 C 3.441406 -15.945312 2.554688 -14.957031 1.734375 -13.9375 C 0.910156 -12.914062 0.1875 -11.800781 -0.4375 -10.59375 C -0.625 -10.226562 -0.796875 -9.851562 -0.953125 -9.46875 C -1.117188 -9.082031 -1.273438 -8.6875 -1.421875 -8.28125 C -1.492188 -8.0625 -1.53125 -7.878906 -1.53125 -7.734375 C -1.53125 -7.585938 -1.515625 -7.460938 -1.484375 -7.359375 Z M -1.484375 -7.359375 " />
            </g>
        </g>
    </g>
    <g fill="#ffffff" fill-opacity="1">
        <g transform="translate(232.033508, 218.928941)">
            <g>
                <path
                    d="M 29.25 0 C 28.15625 0 27.3125 -0.492188 26.71875 -1.484375 C 26.46875 -1.953125 26.273438 -2.429688 26.140625 -2.921875 C 26.015625 -3.421875 25.914062 -3.925781 25.84375 -4.4375 C 25.8125 -4.738281 25.785156 -5.003906 25.765625 -5.234375 C 25.742188 -5.472656 25.734375 -5.722656 25.734375 -5.984375 C 25.734375 -6.640625 25.769531 -7.285156 25.84375 -7.921875 C 25.914062 -8.566406 26.023438 -9.203125 26.171875 -9.828125 L 27.28125 -14.484375 C 27.351562 -14.773438 27.414062 -15.054688 27.46875 -15.328125 C 27.519531 -15.609375 27.546875 -15.878906 27.546875 -16.140625 L 27.546875 -16.25 C 27.546875 -16.320312 27.535156 -16.398438 27.515625 -16.484375 C 27.503906 -16.578125 27.5 -16.679688 27.5 -16.796875 C 27.351562 -16.753906 27.222656 -16.722656 27.109375 -16.703125 C 26.992188 -16.691406 26.898438 -16.648438 26.828125 -16.578125 C 26.535156 -16.390625 26.234375 -16.203125 25.921875 -16.015625 C 25.617188 -15.835938 25.320312 -15.640625 25.03125 -15.421875 C 23.925781 -14.617188 22.84375 -13.773438 21.78125 -12.890625 C 20.71875 -12.015625 19.660156 -11.15625 18.609375 -10.3125 C 17.765625 -9.65625 16.921875 -8.976562 16.078125 -8.28125 C 15.234375 -7.59375 14.375 -6.9375 13.5 -6.3125 C 13.132812 -6.050781 12.757812 -5.828125 12.375 -5.640625 C 11.988281 -5.460938 11.632812 -5.25 11.3125 -5 C 10.9375 -4.738281 10.492188 -4.609375 9.984375 -4.609375 C 9.617188 -4.609375 9.289062 -4.71875 9 -4.9375 C 8.707031 -5.15625 8.5625 -5.445312 8.5625 -5.8125 L 8.5625 -6.03125 C 8.5625 -6.21875 8.566406 -6.375 8.578125 -6.5 C 8.597656 -6.625 8.628906 -6.765625 8.671875 -6.921875 C 8.816406 -7.242188 8.925781 -7.566406 9 -7.890625 C 9.070312 -8.222656 9.179688 -8.535156 9.328125 -8.828125 C 9.910156 -10.109375 10.515625 -11.398438 11.140625 -12.703125 C 11.765625 -14.003906 12.367188 -15.296875 12.953125 -16.578125 L 14.21875 -19.421875 C 14.289062 -19.535156 14.332031 -19.65625 14.34375 -19.78125 C 14.363281 -19.90625 14.394531 -20.023438 14.4375 -20.140625 C 14.363281 -20.171875 14.269531 -20.1875 14.15625 -20.1875 C 14.082031 -20.1875 14.019531 -20.164062 13.96875 -20.125 C 13.914062 -20.09375 13.851562 -20.0625 13.78125 -20.03125 C 12.457031 -19.375 11.226562 -18.53125 10.09375 -17.5 C 9.476562 -16.957031 8.859375 -16.421875 8.234375 -15.890625 C 7.609375 -15.359375 6.984375 -14.800781 6.359375 -14.21875 C 4.929688 -12.863281 3.515625 -11.472656 2.109375 -10.046875 C 0.703125 -8.617188 -0.726562 -7.207031 -2.1875 -5.8125 C -3 -5.082031 -3.78125 -4.332031 -4.53125 -3.5625 C -5.28125 -2.800781 -6.078125 -2.050781 -6.921875 -1.3125 C -7.066406 -1.164062 -7.21875 -1.035156 -7.375 -0.921875 C -7.539062 -0.816406 -7.71875 -0.710938 -7.90625 -0.609375 C -8.007812 -0.535156 -8.171875 -0.460938 -8.390625 -0.390625 C -8.460938 -0.347656 -8.554688 -0.328125 -8.671875 -0.328125 C -9.222656 -0.328125 -9.5 -0.601562 -9.5 -1.15625 C -9.5 -1.332031 -9.429688 -1.519531 -9.296875 -1.71875 C -9.171875 -1.925781 -9.050781 -2.101562 -8.9375 -2.25 C -8.644531 -2.6875 -8.332031 -3.113281 -8 -3.53125 C -7.675781 -3.957031 -7.367188 -4.375 -7.078125 -4.78125 C -5.398438 -7.039062 -3.8125 -9.332031 -2.3125 -11.65625 C -0.8125 -13.976562 0.726562 -16.382812 2.3125 -18.875 C 3.144531 -20.195312 3.953125 -21.46875 4.734375 -22.6875 C 5.523438 -23.914062 6.304688 -25.171875 7.078125 -26.453125 C 7.148438 -26.597656 7.238281 -26.734375 7.34375 -26.859375 C 7.457031 -26.992188 7.570312 -27.132812 7.6875 -27.28125 C 7.757812 -27.382812 7.859375 -27.472656 7.984375 -27.546875 C 8.109375 -27.617188 8.207031 -27.691406 8.28125 -27.765625 C 8.425781 -27.910156 8.628906 -27.984375 8.890625 -27.984375 C 9.148438 -27.984375 9.332031 -27.945312 9.4375 -27.875 C 9.769531 -27.695312 9.9375 -27.382812 9.9375 -26.9375 C 9.9375 -26.644531 9.878906 -26.300781 9.765625 -25.90625 C 9.617188 -25.425781 9.4375 -24.957031 9.21875 -24.5 C 9 -24.039062 8.722656 -23.613281 8.390625 -23.21875 C 8.242188 -23.070312 8.097656 -22.914062 7.953125 -22.75 C 7.804688 -22.582031 7.625 -22.460938 7.40625 -22.390625 C 7.113281 -22.273438 6.914062 -22.109375 6.8125 -21.890625 L 6.3125 -21.015625 C 5.25 -19.148438 4.066406 -17.347656 2.765625 -15.609375 C 1.472656 -13.867188 0.273438 -12.085938 -0.828125 -10.265625 L -1.3125 -9.4375 C -1.238281 -9.363281 -1.1875 -9.328125 -1.15625 -9.328125 L -0.390625 -10.09375 C 0.785156 -11.269531 1.957031 -12.394531 3.125 -13.46875 C 4.300781 -14.550781 5.472656 -15.640625 6.640625 -16.734375 C 8.253906 -18.234375 9.992188 -19.585938 11.859375 -20.796875 C 12.179688 -21.015625 12.523438 -21.210938 12.890625 -21.390625 C 13.253906 -21.578125 13.640625 -21.742188 14.046875 -21.890625 C 14.378906 -22.003906 14.707031 -22.0625 15.03125 -22.0625 C 15.800781 -22.0625 16.1875 -21.695312 16.1875 -20.96875 L 16.1875 -20.796875 C 16.1875 -20.429688 16.132812 -20.046875 16.03125 -19.640625 C 15.882812 -19.171875 15.707031 -18.710938 15.5 -18.265625 C 15.300781 -17.828125 15.09375 -17.390625 14.875 -16.953125 L 11.53125 -9.875 C 11.34375 -9.4375 11.164062 -9 11 -8.5625 C 10.832031 -8.125 10.660156 -7.703125 10.484375 -7.296875 C 10.441406 -7.148438 10.410156 -7.019531 10.390625 -6.90625 C 10.378906 -6.800781 10.351562 -6.691406 10.3125 -6.578125 C 10.457031 -6.429688 10.640625 -6.429688 10.859375 -6.578125 C 11.234375 -6.835938 11.601562 -7.078125 11.96875 -7.296875 C 12.332031 -7.515625 12.675781 -7.753906 13 -8.015625 C 15.195312 -9.878906 17.445312 -11.6875 19.75 -13.4375 C 20.59375 -14.0625 21.425781 -14.691406 22.25 -15.328125 C 23.070312 -15.972656 23.882812 -16.609375 24.6875 -17.234375 C 24.988281 -17.453125 25.289062 -17.632812 25.59375 -17.78125 C 25.90625 -17.925781 26.191406 -18.09375 26.453125 -18.28125 C 26.742188 -18.457031 27.109375 -18.546875 27.546875 -18.546875 C 28.460938 -18.546875 29.007812 -18.085938 29.1875 -17.171875 C 29.226562 -17.023438 29.25 -16.890625 29.25 -16.765625 C 29.25 -16.640625 29.25 -16.503906 29.25 -16.359375 C 29.25 -15.878906 29.191406 -15.382812 29.078125 -14.875 C 28.929688 -14.070312 28.757812 -13.265625 28.5625 -12.453125 C 28.363281 -11.648438 28.171875 -10.847656 27.984375 -10.046875 C 27.878906 -9.566406 27.757812 -9.078125 27.625 -8.578125 C 27.5 -8.085938 27.4375 -7.585938 27.4375 -7.078125 C 27.4375 -6.859375 27.425781 -6.644531 27.40625 -6.4375 C 27.394531 -6.238281 27.390625 -6.03125 27.390625 -5.8125 C 27.390625 -5.15625 27.476562 -4.460938 27.65625 -3.734375 C 27.726562 -3.472656 27.8125 -3.222656 27.90625 -2.984375 C 28 -2.753906 28.097656 -2.53125 28.203125 -2.3125 C 28.421875 -1.863281 28.769531 -1.640625 29.25 -1.640625 C 29.726562 -1.640625 30.222656 -1.769531 30.734375 -2.03125 C 31.128906 -2.21875 31.5 -2.410156 31.84375 -2.609375 C 32.195312 -2.804688 32.539062 -3.015625 32.875 -3.234375 C 34.625 -4.410156 36.269531 -5.765625 37.8125 -7.296875 C 38.800781 -8.285156 39.734375 -9.265625 40.609375 -10.234375 C 41.484375 -11.203125 42.488281 -12.253906 43.625 -13.390625 L 44.015625 -13.78125 C 44.304688 -14.070312 44.613281 -14.085938 44.9375 -13.828125 C 45.269531 -13.566406 45.382812 -13.238281 45.28125 -12.84375 C 45.238281 -12.726562 45.144531 -12.5625 45 -12.34375 C 44.925781 -12.238281 44.84375 -12.128906 44.75 -12.015625 C 44.65625 -11.910156 44.554688 -11.800781 44.453125 -11.6875 L 38.078125 -5.328125 C 37.390625 -4.628906 36.648438 -3.953125 35.859375 -3.296875 C 35.078125 -2.640625 34.242188 -2.050781 33.359375 -1.53125 C 32.960938 -1.28125 32.550781 -1.050781 32.125 -0.84375 C 31.707031 -0.644531 31.257812 -0.457031 30.78125 -0.28125 C 30.238281 -0.09375 29.726562 0 29.25 0 Z M 29.25 0 " />
            </g>
        </g>
    </g>
</svg>